<svg width="92" height="24" viewBox="0 0 92 24" fill="none" xmlns="http://www.w3.org/2000/svg">
<path d="M12.6445 18L11.4023 13.9219H5.15625L3.91406 18H0L6.04688 0.796875H10.4883L16.5586 18H12.6445ZM10.5352 10.875L9.29297 6.89062C9.21484 6.625 9.10938 6.28516 8.97656 5.87109C8.85156 5.44922 8.72266 5.02344 8.58984 4.59375C8.46484 4.15625 8.36328 3.77734 8.28516 3.45703C8.20703 3.77734 8.09766 4.17578 7.95703 4.65234C7.82422 5.12109 7.69531 5.56641 7.57031 5.98828C7.44531 6.41016 7.35547 6.71094 7.30078 6.89062L6.07031 10.875H10.5352ZM25.8867 4.65234C27.2852 4.65234 28.4102 5.03516 29.2617 5.80078C30.1133 6.55859 30.5391 7.77734 30.5391 9.45703V18H26.9648V10.3477C26.9648 9.41016 26.793 8.70312 26.4492 8.22656C26.1133 7.75 25.582 7.51172 24.8555 7.51172C23.7617 7.51172 23.0156 7.88281 22.6172 8.625C22.2188 9.36719 22.0195 10.4375 22.0195 11.8359V18H18.4453V4.89844H21.1758L21.6562 6.57422H21.8555C22.1367 6.12109 22.4844 5.75391 22.8984 5.47266C23.3203 5.19141 23.7852 4.98438 24.293 4.85156C24.8086 4.71875 25.3398 4.65234 25.8867 4.65234ZM32.3438 4.89844H36.2578L38.7305 12.2695C38.8086 12.5039 38.875 12.7422 38.9297 12.9844C38.9844 13.2266 39.0312 13.4766 39.0703 13.7344C39.1094 13.9922 39.1406 14.2617 39.1641 14.543H39.2344C39.2812 14.1211 39.3438 13.7266 39.4219 13.3594C39.5078 12.9922 39.6133 12.6289 39.7383 12.2695L42.1641 4.89844H45.9961L40.4531 19.6758C40.1172 20.582 39.6797 21.3359 39.1406 21.9375C38.6016 22.5469 37.9805 23.0039 37.2773 23.3086C36.582 23.6133 35.8164 23.7656 34.9805 23.7656C34.5742 23.7656 34.2227 23.7422 33.9258 23.6953C33.6289 23.6562 33.375 23.6133 33.1641 23.5664V20.7305C33.3281 20.7695 33.5352 20.8047 33.7852 20.8359C34.0352 20.8672 34.2969 20.8828 34.5703 20.8828C35.0703 20.8828 35.5 20.7773 35.8594 20.5664C36.2188 20.3555 36.5195 20.0703 36.7617 19.7109C37.0039 19.3594 37.1953 18.9727 37.3359 18.5508L37.5469 17.9062L32.3438 4.89844Z" fill="white"/>
<path d="M48.1641 0.867188H53.4961C55.7773 0.867188 57.5039 1.1875 58.6758 1.82812C59.8477 2.46875 60.4336 3.59375 60.4336 5.20312C60.4336 5.85156 60.3281 6.4375 60.1172 6.96094C59.9141 7.48438 59.6172 7.91406 59.2266 8.25C58.8359 8.58594 58.3594 8.80469 57.7969 8.90625V9.02344C58.3672 9.14062 58.8828 9.34375 59.3438 9.63281C59.8047 9.91406 60.1719 10.3281 60.4453 10.875C60.7266 11.4141 60.8672 12.1328 60.8672 13.0312C60.8672 14.0703 60.6133 14.9609 60.1055 15.7031C59.5977 16.4453 58.8711 17.0156 57.9258 17.4141C56.9883 17.8047 55.8711 18 54.5742 18H48.1641V0.867188ZM51.7969 7.65234H53.9062C54.9609 7.65234 55.6914 7.48828 56.0977 7.16016C56.5039 6.82422 56.707 6.33203 56.707 5.68359C56.707 5.02734 56.4648 4.55859 55.9805 4.27734C55.5039 3.98828 54.7461 3.84375 53.707 3.84375H51.7969V7.65234ZM51.7969 10.5352V15H54.1641C55.2578 15 56.0195 14.7891 56.4492 14.3672C56.8789 13.9453 57.0938 13.3789 57.0938 12.668C57.0938 12.2461 57 11.875 56.8125 11.5547C56.625 11.2344 56.3086 10.9844 55.8633 10.8047C55.4258 10.625 54.8203 10.5352 54.0469 10.5352H51.7969ZM76.0312 4.89844V18H73.2891L72.8086 16.3242H72.6211C72.3398 16.7695 71.9883 17.1328 71.5664 17.4141C71.1445 17.6953 70.6797 17.9023 70.1719 18.0352C69.6641 18.168 69.1367 18.2344 68.5898 18.2344C67.6523 18.2344 66.8359 18.0703 66.1406 17.7422C65.4453 17.4062 64.9023 16.8867 64.5117 16.1836C64.1289 15.4805 63.9375 14.5664 63.9375 13.4414V4.89844H67.5117V12.5508C67.5117 13.4883 67.6797 14.1953 68.0156 14.6719C68.3516 15.1484 68.8867 15.3867 69.6211 15.3867C70.3477 15.3867 70.918 15.2227 71.332 14.8945C71.7461 14.5586 72.0352 14.0703 72.1992 13.4297C72.3711 12.7812 72.457 11.9922 72.457 11.0625V4.89844H76.0312ZM77.9062 4.89844H81.8203L84.293 12.2695C84.3711 12.5039 84.4375 12.7422 84.4922 12.9844C84.5469 13.2266 84.5938 13.4766 84.6328 13.7344C84.6719 13.9922 84.7031 14.2617 84.7266 14.543H84.7969C84.8438 14.1211 84.9062 13.7266 84.9844 13.3594C85.0703 12.9922 85.1758 12.6289 85.3008 12.2695L87.7266 4.89844H91.5586L86.0156 19.6758C85.6797 20.582 85.2422 21.3359 84.7031 21.9375C84.1641 22.5469 83.543 23.0039 82.8398 23.3086C82.1445 23.6133 81.3789 23.7656 80.543 23.7656C80.1367 23.7656 79.7852 23.7422 79.4883 23.6953C79.1914 23.6562 78.9375 23.6133 78.7266 23.5664V20.7305C78.8906 20.7695 79.0977 20.8047 79.3477 20.8359C79.5977 20.8672 79.8594 20.8828 80.1328 20.8828C80.6328 20.8828 81.0625 20.7773 81.4219 20.5664C81.7812 20.3555 82.082 20.0703 82.3242 19.7109C82.5664 19.3594 82.7578 18.9727 82.8984 18.5508L83.1094 17.9062L77.9062 4.89844Z" fill="#FC9101"/>
</svg>
