<svg width="44" height="44" viewBox="0 0 44 44" fill="none" xmlns="http://www.w3.org/2000/svg">
<path d="M18.3334 34.8333C17.905 34.8341 17.4899 34.685 17.1601 34.4116C16.9744 34.2577 16.821 34.0687 16.7085 33.8554C16.596 33.6421 16.5267 33.4087 16.5046 33.1686C16.4824 32.9285 16.5079 32.6863 16.5795 32.4561C16.651 32.2258 16.7673 32.0119 16.9217 31.8266L25.1351 22L17.2151 12.155C17.0628 11.9674 16.949 11.7517 16.8804 11.52C16.8118 11.2884 16.7896 11.0455 16.8152 10.8053C16.8407 10.5651 16.9135 10.3323 17.0293 10.1203C17.1451 9.90829 17.3017 9.72126 17.4901 9.56997C17.6797 9.40307 17.9019 9.27718 18.1425 9.2002C18.3832 9.12322 18.6371 9.09681 18.8885 9.12264C19.1398 9.14846 19.3831 9.22595 19.6031 9.35026C19.823 9.47456 20.0149 9.64299 20.1667 9.84497L29.0217 20.845C29.2914 21.173 29.4388 21.5845 29.4388 22.0091C29.4388 22.4338 29.2914 22.8453 29.0217 23.1733L19.8551 34.1733C19.6711 34.3952 19.4375 34.5706 19.1731 34.6852C18.9087 34.7999 18.621 34.8506 18.3334 34.8333Z" fill="white"/>
</svg>
