<svg width="53" height="53" viewBox="0 0 53 53" fill="none" xmlns="http://www.w3.org/2000/svg">
<g filter="url(#filter0_d_2_13)">
<path fill-rule="evenodd" clip-rule="evenodd" d="M32.118 11.1168L26.924 8.66111C26.659 8.53744 26.3587 8.53744 26.0937 8.66111L20.882 11.1168C20.14 11.4701 19.8044 12.3711 20.1577 13.1131C20.405 13.6608 20.9527 13.9788 21.518 13.9788C21.73 13.9788 21.942 13.9258 22.154 13.8374L24.9984 12.4948V16.1518C24.9984 16.9821 25.6697 17.6534 26.5 17.6534C27.3304 17.6534 28.0017 16.9821 28.0017 16.1518V12.4948L30.846 13.8374C31.588 14.1908 32.489 13.8728 32.8424 13.1131C33.1957 12.3534 32.8777 11.4701 32.118 11.1168ZM30.8461 21.2398L26.5001 23.2891L22.1541 21.2398C21.4121 20.8864 20.5111 21.2044 20.1577 21.9641C19.8044 22.7061 20.1224 23.6071 20.8821 23.9604L24.9454 25.8684C24.9454 25.9038 24.9366 25.9347 24.9277 25.9656C24.9189 25.9965 24.9101 26.0274 24.9101 26.0628V29.7374C24.9101 30.5678 25.5814 31.2391 26.4117 31.2391C27.2421 31.2391 27.9134 30.5678 27.9134 29.7374V26.0628C27.9134 26.0451 27.909 26.0275 27.9046 26.0098L27.9046 26.0098L27.9046 26.0098C27.9002 25.9921 27.8957 25.9744 27.8957 25.9568L32.1357 23.9604C32.8777 23.6071 33.2134 22.7061 32.8601 21.9641C32.4891 21.2221 31.5881 20.8864 30.8461 21.2398ZM37.7184 13.8728L42.3647 16.0988C42.7181 16.2578 42.9301 16.6111 42.9301 16.9821V22.3351C42.9301 23.1654 42.2587 23.8368 41.4284 23.8368C40.5981 23.8368 39.9267 23.1654 39.9267 22.3351V20.3564L37.4711 21.5048C37.2591 21.5931 37.0471 21.6461 36.8351 21.6461C36.2697 21.6461 35.7221 21.3281 35.4747 20.7804C35.1214 20.0384 35.4571 19.1374 36.1991 18.7841L38.6371 17.6358L36.4287 16.5758C35.6867 16.2224 35.3687 15.3214 35.7221 14.5794C36.0754 13.8374 36.9764 13.5194 37.7184 13.8728ZM16.8011 18.7841L14.3631 17.6358L16.5714 16.5758C17.3134 16.2224 17.6314 15.3214 17.2781 14.5794C16.9247 13.8198 16.0237 13.5018 15.2817 13.8728L10.6354 16.0988C10.2821 16.2578 10.0701 16.6111 10.0701 16.9821V22.3174C10.0701 23.1478 10.7414 23.8191 11.5717 23.8191C12.4021 23.8191 13.0734 23.1654 13.0734 22.3351V20.3388L15.5291 21.4871C15.7411 21.5931 15.9531 21.6461 16.1651 21.6461C16.7304 21.6461 17.2781 21.3281 17.5254 20.7804C17.8787 20.0384 17.5607 19.1374 16.8011 18.7841ZM39.9268 30.9388C39.9268 30.1084 40.5981 29.4371 41.4284 29.4371C42.2588 29.4371 42.9301 30.1084 42.9478 30.9388V36.2741C42.9478 36.6628 42.7181 37.0161 42.3824 37.1751L37.7361 39.4011C37.5241 39.4894 37.2944 39.5424 37.0824 39.5424C36.5171 39.5424 35.9871 39.2244 35.7221 38.6944C35.3688 37.9524 35.6868 37.0514 36.4288 36.6981L38.6371 35.6381L36.1991 34.4898C35.4394 34.1364 35.1214 33.2531 35.4748 32.4934C35.8281 31.7338 36.7291 31.4158 37.4711 31.7691L39.9268 32.9174V30.9388ZM17.5254 32.4758C17.1721 31.7338 16.2711 31.3981 15.5291 31.7514L13.0734 32.9174V30.9388C13.0734 30.1084 12.4021 29.4371 11.5717 29.4371C10.7414 29.4371 10.0701 30.1084 10.0701 30.9388V36.2918C10.0701 36.6628 10.2821 37.0161 10.6177 37.1751L15.2641 39.4011C15.4761 39.5071 15.6881 39.5424 15.9177 39.5424C16.4831 39.5424 17.0131 39.2244 17.2781 38.6944C17.6314 37.9524 17.3134 37.0514 16.5714 36.6981L14.3631 35.6381L16.8011 34.4898C17.5607 34.1364 17.8787 33.2354 17.5254 32.4758ZM28.0017 40.5318L30.8461 39.1891C31.5881 38.8358 32.4891 39.1538 32.8424 39.9134C33.1957 40.6554 32.8601 41.5564 32.1181 41.9098L26.9241 44.3478C26.6591 44.4714 26.3411 44.4714 26.0761 44.3478L20.8821 41.9098C20.1224 41.5564 19.8044 40.6554 20.1577 39.9134C20.5111 39.1538 21.4121 38.8358 22.1541 39.1891L24.9984 40.5318V36.8748C24.9984 36.0444 25.6697 35.3731 26.5001 35.3731C27.3304 35.3731 28.0017 36.0444 28.0017 36.8748V40.5318Z" fill="#FF9900"/>
</g>
<defs>
<filter id="filter0_d_2_13" x="-4" y="0" width="61" height="61" filterUnits="userSpaceOnUse" color-interpolation-filters="sRGB">
<feFlood flood-opacity="0" result="BackgroundImageFix"/>
<feColorMatrix in="SourceAlpha" type="matrix" values="0 0 0 0 0 0 0 0 0 0 0 0 0 0 0 0 0 0 127 0" result="hardAlpha"/>
<feOffset dy="4"/>
<feGaussianBlur stdDeviation="2"/>
<feComposite in2="hardAlpha" operator="out"/>
<feColorMatrix type="matrix" values="0 0 0 0 0 0 0 0 0 0 0 0 0 0 0 0 0 0 0.25 0"/>
<feBlend mode="normal" in2="BackgroundImageFix" result="effect1_dropShadow_2_13"/>
<feBlend mode="normal" in="SourceGraphic" in2="effect1_dropShadow_2_13" result="shape"/>
</filter>
</defs>
</svg>
